<?xml version="1.0" standalone="no"?>
<!DOCTYPE svg PUBLIC "-//W3C//DTD SVG 1.1//EN" "http://www.w3.org/Graphics/SVG/1.1/DTD/svg11.dtd">
<!--Generator: Xara Designer (www.xara.com), SVG filter version: 6,5,0,13-->
<svg fill="none" fill-rule="evenodd" stroke="black" stroke-linejoin="bevel" stroke-miterlimit="10" font-family="Times New Roman" font-size="16" style="font-variant-ligatures:none" xmlns:xlink="http://www.w3.org/1999/xlink" xmlns="http://www.w3.org/2000/svg" version="1.1" overflow="visible" width="75.001pt" height="75.001pt" viewBox="228.64 -300.624 75.001 75.001">
 <defs>
  <style type="text/css">@import url('https://themes.googleusercontent.com/fonts/css?family=Open Sans:400,600');</style>
 </defs>
 <g id="Layer 1" transform="scale(1 -1)" stroke-width="0.501">
  <path d="M 292.389,225.623 L 239.556,225.861 C 233.504,225.888 228.613,230.823 228.64,236.875 L 228.878,289.708 C 228.905,295.76 233.84,300.651 239.892,300.624 L 292.725,300.386 C 298.777,300.359 303.668,295.424 303.641,289.372 L 303.403,236.539 C 303.376,230.487 298.441,225.596 292.389,225.623 Z M 292.307,263.005 L 292.307,263.006 C 292.318,265.483 290.318,267.501 287.842,267.512 L 244.479,267.708 C 242.004,267.719 239.984,265.718 239.974,263.242 L 239.974,263.241 C 239.963,260.764 241.963,258.746 244.439,258.735 L 287.802,258.539 C 290.278,258.528 292.297,260.529 292.307,263.005 Z" stroke-linejoin="miter" fill="#f78e30" stroke="none" marker-start="none" marker-end="none"/>
 </g>
 <g id="Background\BG" transform="scale(1 -1)" stroke-width="0.501"/>
 <g id="Background\Texture" transform="scale(1 -1)" stroke-width="0.501"/>
 <g id="Background\Shape" transform="scale(1 -1)" stroke-width="0.501"/>
 <g id="Vegetables-Elements\Tomatos" transform="scale(1 -1)" stroke-width="0.501"/>
 <g id="Vegetables-Elements\Leaf" transform="scale(1 -1)" stroke-width="0.501"/>
 <g id="Place-Your-Image-Here\Smoke-Brush" transform="scale(1 -1)" stroke-width="0.501"/>
 <g id="Free-Home-Delivery-Text\Arrow" transform="scale(1 -1)" stroke-width="0.501"/>
 <g id="Free-Home-Delivery-Text\Free Home Delivery" transform="scale(1 -1)" stroke-width="0.501"/>
 <g id="Discount-Tag\On all Items" transform="scale(1 -1)" stroke-width="0.501"/>
 <g id="Discount-Tag\Off" transform="scale(1 -1)" stroke-width="0.501"/>
 <g id="Discount-Tag\%" transform="scale(1 -1)" stroke-width="0.501"/>
 <g id="Discount-Tag\50" transform="scale(1 -1)" stroke-width="0.501"/>
 <g id="Contact-Text\www.yourwebsite.com" transform="scale(1 -1)" stroke-width="0.501"/>
 <g id="Contact-Text\323-517-4946" transform="scale(1 -1)" stroke-width="0.501"/>
 <g id="Button\BG" transform="scale(1 -1)" stroke-width="0.501"/>
 <g id="Button\Order Now" transform="scale(1 -1)" stroke-width="0.501"/>
 <g id="Text\BG" transform="scale(1 -1)" stroke-width="0.501"/>
 <g id="Text\This Weekend Only" transform="scale(1 -1)" stroke-width="0.501"/>
 <g id="Text\Pizza" transform="scale(1 -1)" stroke-width="0.501"/>
 <g id="Text\Spicy" transform="scale(1 -1)" stroke-width="0.501"/>
 <g id="Text\&amp;" transform="scale(1 -1)" stroke-width="0.501"/>
 <g id="Text\Hot" transform="scale(1 -1)" stroke-width="0.501"/>
 <g id="Logo\Logo Here" transform="scale(1 -1)" stroke-width="0.501"/>
 <g id="Logo\Icon" transform="scale(1 -1)" stroke-width="0.501"/>
</svg>
